<svg width="24" height="24" viewBox="0 0 24 24" fill="none" xmlns="http://www.w3.org/2000/svg">
<path d="M2 12C2 6.47715 6.47715 2 12 2C17.5228 2 22 6.47715 22 12C22 17.5228 17.5228 22 12 22C6.47715 22 2 17.5228 2 12Z" fill="#2A81DD"/>
<path d="M13.3338 12L16.2238 9.11006C16.5921 8.74174 16.5921 8.14457 16.2238 7.77624C15.8554 7.40792 15.2583 7.40792 14.8899 7.77624L12 10.6662L9.11006 7.77624C8.74174 7.40792 8.14457 7.40792 7.77624 7.77624C7.40792 8.14457 7.40792 8.74174 7.77624 9.11006L10.6662 12L7.77624 14.8899C7.40792 15.2583 7.40792 15.8554 7.77624 16.2238C8.14457 16.5921 8.74174 16.5921 9.11006 16.2238L12 13.3338L14.8899 16.2238C15.2583 16.5921 15.8554 16.5921 16.2238 16.2238C16.5921 15.8554 16.5921 15.2583 16.2238 14.8899L13.3338 12Z" fill="white"/>
</svg>
