<svg width="25" height="24" viewBox="0 0 25 24" fill="none" xmlns="http://www.w3.org/2000/svg">
<path fill-rule="evenodd" clip-rule="evenodd" d="M19.003 17H5.997C5.723 17 5.5 16.777 5.5 16.503V15.84L10.198 12.91L12.503 14.578L14.863 12.831L19.5 15.834V16.503C19.5 16.777 19.277 17 19.003 17ZM9.323 12.277L5.5 14.661V9.51L9.323 12.277ZM19.5 9.398V14.644L15.722 12.196L19.5 9.398ZM5.997 7H19.003C19.277 7 19.5 7.223 19.5 7.497V8.154L12.497 13.339L5.5 8.276V7.497C5.5 7.223 5.723 7 5.997 7ZM19.003 6H5.997C5.172 6 4.5 6.671 4.5 7.497V16.503C4.5 17.329 5.172 18 5.997 18H19.003C19.828 18 20.5 17.329 20.5 16.503V7.497C20.5 6.671 19.828 6 19.003 6Z" fill="#2A81DD"/>
</svg>
